<?xml version="1.0" encoding="utf-8"?>
<svg xmlns="http://www.w3.org/2000/svg" width="216" height="68" viewBox="0 0 216 68" fill="none">
<path d="M173.662 39.1936H170.69L166.1 47.5749H158.877L171.942 23.7458H181.238C187.286 23.7458 191.078 25.1591 189.487 30.0564C188.024 34.5593 184.617 36.9586 180.697 38.1747L181.583 47.5749H174.222L173.662 39.1936ZM173.552 34.0005H176.662C178.563 34.0005 180.669 33.4747 181.385 31.2725C181.823 29.9249 181.023 29.3005 179.226 29.3005H176.116L173.552 34.0005Z" fill="#FF3A3A"/>
<path d="M156.903 47.5749H149.68L162.745 23.7458H169.968L156.903 47.5749Z" fill="#FF3A3A"/>
<path d="M160.813 23.7458L147.749 47.5749H140.526L145.456 38.5691H136.851L131.921 47.5749H124.698L137.762 23.7458H144.985L140.121 32.653H148.727L153.59 23.7458H160.813Z" fill="#FF3A3A"/>
<path d="M127.895 31.8317C125.518 29.8925 122.688 29.1365 120.546 29.1365C118.714 29.1365 117.365 29.5638 117.109 30.3526C116.864 31.1086 117.525 31.7331 118.686 32.0946L121.96 33.0807C125.744 34.1982 128.671 36.0387 127.389 39.9829C125.659 45.3074 119.703 48.0026 113.932 48.0026C108.368 48.0026 104.776 46.2934 102.636 44.157L108.298 38.964C110.289 41.1332 112.94 42.1193 116.223 42.1193C117.917 42.1193 119.414 41.6591 119.724 40.7059C120.044 39.7199 118.809 39.1612 116.813 38.6024L114.363 37.8465C111.182 36.8933 108.559 34.7569 109.808 30.9114C111.25 26.4743 116.223 23.1875 122.79 23.1875C128.319 23.1875 131.804 25.2253 133.347 26.54L127.895 31.8317Z" fill="#FF3A3A"/>
<path d="M86.8596 23.7458L73.7949 47.5749H66.5721L71.5027 38.5691H62.8974L57.9669 47.5749H50.744L63.8087 23.7458H71.0315L66.1675 32.653H74.7727L79.6367 23.7458H86.8596Z" fill="#FF3A3A"/>
<path d="M101.18 47.5755H93.5082L94.316 43.5985H90.3394C90.6213 43.2179 90.9973 42.7307 91.2348 42.4357C91.5073 42.0973 92.0162 41.4999 92.3631 41.1122C92.7099 40.7185 93.1869 40.2201 93.4222 39.9986C93.6513 39.7833 93.9981 39.4822 94.1838 39.3346C94.3759 39.1869 94.6794 38.9772 94.8652 38.8665C95.0574 38.7618 95.4724 38.5588 95.7943 38.4235C96.1226 38.282 96.6061 38.0972 96.8785 38.0111C97.151 37.925 97.5412 37.8147 97.7455 37.7594C97.95 37.7101 98.4392 37.611 98.8293 37.5495C99.2257 37.4818 99.9877 37.396 100.533 37.3591C101.078 37.3222 101.666 37.2854 101.833 37.2792C102 37.2731 102.143 37.2357 102.155 37.2049C102.165 37.162 101.725 37.1128 101.015 37.0637C100.378 37.0207 99.5914 36.9345 99.263 36.8668C98.941 36.8053 98.5074 36.6884 98.3029 36.6207C98.0985 36.5469 97.838 36.4299 97.7141 36.356C97.5964 36.2821 97.3915 36.1227 97.2615 36.0059C97.1252 35.8828 96.9708 35.6856 96.9027 35.5564C96.8408 35.4272 96.7853 35.2056 96.7853 35.0641C96.7853 34.9226 96.8536 34.5345 96.9403 34.2022C97.0271 33.8699 97.2062 33.316 97.3363 32.9716C97.4726 32.6269 97.7701 31.9381 97.993 31.4521C98.2222 30.9601 98.5873 30.2159 98.8041 29.8036C99.0268 29.3918 99.2249 29.0597 99.25 29.0773L100.266 27.2374C100.593 26.6425 100.686 26.4389 100.687 26.4071C100.687 26.3703 100.663 26.345 100.632 26.3449C100.601 26.3449 100.124 27.0162 99.5728 27.8346C99.0154 28.6528 98.2598 29.7414 97.882 30.2522C97.5104 30.7566 96.9343 31.5011 96.6059 31.9072C96.2838 32.3072 95.6885 33.0032 95.2983 33.4462C94.9019 33.8892 94.3571 34.4431 94.0908 34.6768C93.8183 34.9106 93.4033 35.2242 93.1618 35.378C92.9265 35.5318 92.493 35.7655 92.2018 35.9009C91.917 36.0301 91.4275 36.2204 91.1178 36.3189C90.8144 36.4173 90.3561 36.553 90.0959 36.6207C89.842 36.6884 89.2968 36.7992 88.888 36.8668C88.4792 36.9345 87.5809 37.0207 86.8934 37.0637C85.9705 37.1191 85.6362 37.1625 85.6362 37.2179C85.6369 37.273 85.7666 37.2974 86.0567 37.2913C86.2858 37.2913 86.8372 37.3222 87.2769 37.3591C87.7228 37.396 88.349 37.4818 88.6711 37.5495C88.9994 37.6172 89.4577 37.7529 89.6931 37.8513C89.9346 37.9498 90.2563 38.1282 90.405 38.2451C90.5599 38.3682 90.7645 38.5838 90.8574 38.7253C90.9936 38.9344 91.0307 39.0575 91.0307 39.3281C91.0307 39.5127 90.9561 39.9252 90.8694 40.2513C90.7826 40.5713 90.5541 41.2237 90.3683 41.6974C90.1763 42.171 89.8546 42.9028 89.6502 43.3273C89.6072 43.4152 89.564 43.5072 89.5201 43.5985H86.4371L82.933 47.5755H75.1224L97.1375 23.7462H105.052L101.18 47.5755Z" fill="#FF3A3A"/>
<path d="M208.075 47.5756H200.403L201.211 43.5986H197.299C197.499 43.3377 197.702 43.0787 197.85 42.8946C198.123 42.5562 198.631 41.9588 198.978 41.5711C199.325 41.1774 199.802 40.679 200.037 40.4575C200.267 40.2422 200.613 39.9411 200.799 39.7935C200.991 39.6458 201.295 39.4361 201.48 39.3254C201.673 39.2207 202.088 39.0177 202.41 38.8824C202.738 38.7409 203.221 38.5561 203.494 38.47C203.766 38.3839 204.156 38.2736 204.361 38.2183C204.565 38.1691 205.054 38.0708 205.444 38.0093C205.841 37.9416 206.603 37.8549 207.148 37.818C207.693 37.7811 208.281 37.7443 208.448 37.7381C208.615 37.732 208.756 37.6954 208.77 37.6647C208.782 37.6217 208.343 37.5719 207.631 37.5226C206.993 37.4796 206.207 37.3934 205.878 37.3257C205.556 37.2642 205.123 37.1473 204.918 37.0796C204.714 37.0058 204.453 36.8888 204.329 36.8149C204.212 36.7411 204.008 36.5816 203.878 36.4648C203.741 36.3417 203.586 36.1445 203.518 36.0153C203.456 35.886 203.401 35.6645 203.401 35.523C203.401 35.3815 203.469 34.9942 203.555 34.662C203.642 34.3299 203.821 33.776 203.951 33.4314C204.087 33.0869 204.385 32.3971 204.608 31.911C204.837 31.4189 205.203 30.6747 205.419 30.2625C205.642 29.8512 205.84 29.5194 205.865 29.5362L206.881 27.6963C207.209 27.1006 207.302 26.8973 207.302 26.866C207.302 26.8292 207.278 26.8039 207.247 26.8038C207.216 26.8038 206.739 27.4751 206.188 28.2935C205.631 29.1116 204.875 30.2002 204.497 30.7111C204.126 31.2154 203.55 31.9599 203.221 32.3661C203.167 32.4339 203.101 32.5089 203.033 32.5909L201.229 34.6305C201.022 34.8401 200.833 35.0245 200.706 35.1357C200.434 35.3695 200.019 35.6831 199.777 35.8369C199.542 35.9907 199.108 36.2244 198.817 36.3598C198.532 36.489 198.042 36.6803 197.733 36.7787C197.429 36.8771 196.971 37.0119 196.711 37.0796C196.457 37.1473 195.912 37.2581 195.503 37.3257C195.094 37.3934 194.196 37.4796 193.509 37.5226C192.586 37.578 192.251 37.6214 192.251 37.6768C192.252 37.732 192.382 37.7563 192.672 37.7502C192.901 37.7502 193.453 37.7811 193.893 37.818C194.339 37.8549 194.964 37.9417 195.286 38.0093C195.614 38.077 196.073 38.2118 196.308 38.3102C196.55 38.4086 196.871 38.5871 197.02 38.704C197.175 38.8271 197.38 39.0427 197.473 39.1842C197.609 39.3933 197.646 39.5164 197.646 39.787C197.646 39.9716 197.571 40.3841 197.485 40.7102C197.398 41.0301 197.169 41.6825 196.984 42.1563C196.817 42.566 196.551 43.1685 196.351 43.5986H193.332L189.828 47.5756H182.018L204.033 23.7463H211.947L208.075 47.5756Z" fill="#FF3A3A"/>
<path d="M30.7277 10.6433C31.6529 9.38355 33.5033 6.69707 34.8683 4.67842C36.2182 2.65976 37.3861 1.00537 37.4619 1.00537C37.5377 1.00537 37.5984 1.06608 37.5984 1.15715C37.5984 1.23304 37.3709 1.73391 36.567 3.20616L34.0796 7.74434C34.0189 7.69881 33.5336 8.51842 32.9876 9.53533C32.4567 10.5522 31.5619 12.3888 31.0007 13.603C30.4547 14.8021 29.7266 16.502 29.393 17.3519C29.0745 18.2019 28.6346 19.5679 28.4223 20.3875C28.2099 21.2071 28.0431 22.1633 28.0431 22.5124C28.0431 22.8615 28.1796 23.4079 28.3313 23.7266C28.4981 24.0454 28.8773 24.5311 29.211 24.8346C29.5295 25.123 30.03 25.5176 30.3182 25.6998C30.6215 25.8819 31.2585 26.1703 31.759 26.3524C32.2596 26.5194 33.3213 26.8077 34.1099 26.9595C34.9138 27.1265 36.84 27.339 38.4023 27.4452C40.1465 27.5666 41.2234 27.6881 41.193 27.7943C41.1627 27.8702 40.8138 27.9613 40.4043 27.9764C39.9948 27.9916 38.5539 28.0827 37.2192 28.1738C35.8845 28.2648 34.0189 28.4773 33.0482 28.6443C32.0927 28.796 30.8945 29.0389 30.394 29.1603C29.8935 29.2969 28.9379 29.5701 28.2706 29.7826C27.6032 29.9951 26.4202 30.4504 25.6163 30.7995C24.8276 31.1334 23.8114 31.6343 23.3413 31.8923C22.8862 32.1655 22.1431 32.6816 21.6729 33.0458C21.2179 33.4101 20.3685 34.1538 19.8073 34.6851C19.231 35.2315 18.0631 36.4609 17.2137 37.4323C16.3644 38.3885 15.1207 39.8607 14.4533 40.6955C13.786 41.5303 12.6636 42.9874 11.9659 43.9587C11.253 44.9149 10.1155 46.4783 9.44814 47.4496C8.76562 48.4058 7.43091 50.3941 6.46021 51.8816C5.48951 53.369 4.62498 54.5832 4.53398 54.5832C4.45814 54.5832 4.39747 54.4922 4.39747 54.3859C4.39747 54.2797 5.04966 53.0654 5.85352 51.6994C6.65738 50.3183 7.67358 48.5728 8.11343 47.8291C8.55328 47.0702 9.08413 46.0836 9.29647 45.6283C9.49364 45.1578 10.07 43.9284 10.5705 42.8963C11.071 41.849 11.8597 40.0428 12.3299 38.8741C12.7849 37.7055 13.3461 36.0966 13.5584 35.3074C13.7708 34.5029 13.9528 33.486 13.9528 33.0307C13.9528 32.3628 13.8618 32.0593 13.5281 31.5432C13.3006 31.1941 12.8001 30.6629 12.4209 30.3594C12.0569 30.071 11.2682 29.6308 10.6767 29.388C10.1003 29.1451 8.97796 28.8112 8.1741 28.6443C7.38541 28.4773 5.85352 28.2648 4.76149 28.1738C3.68462 28.0827 2.33474 28.0068 1.77355 28.0068C1.0607 28.022 0.742188 27.9613 0.742188 27.8247C0.742188 27.6881 1.56121 27.5818 3.82112 27.4452C5.50468 27.339 7.70392 27.1265 8.70495 26.9595C9.70598 26.7926 11.0407 26.5194 11.6625 26.3524C12.2996 26.1855 13.4219 25.8515 14.1651 25.6087C14.9235 25.3658 16.1217 24.8953 16.8194 24.5766C17.5322 24.2427 18.5939 23.6659 19.1703 23.2865C19.7618 22.907 20.778 22.133 21.4454 21.5562C22.0976 20.9794 23.4323 19.6134 24.403 18.5206C25.3585 17.4278 26.8145 15.7127 27.6032 14.7262C28.4071 13.7244 29.8176 11.8879 30.7277 10.6433Z" fill="#FF3A3A" stroke="#FF3A3A" stroke-width="0.20915"/>
<path d="M37.7003 23.1926C38.6255 21.9329 40.4759 19.2464 41.841 17.2277C43.1908 15.2091 44.3587 13.5547 44.4345 13.5547C44.5104 13.5547 44.5711 13.6154 44.5711 13.7065C44.5711 13.7824 44.3435 14.2832 43.5397 15.7555L41.0523 20.2937C40.9916 20.2481 40.5063 21.0677 39.9602 22.0846C39.4294 23.1016 38.5345 24.9381 37.9733 26.1523C37.4273 27.3514 36.6993 29.0513 36.3656 29.9012C36.0471 30.7512 35.6073 32.1172 35.3949 32.9368C35.1826 33.7564 35.0157 34.7126 35.0157 35.0617C35.0157 35.4108 35.1522 35.9572 35.3039 36.276C35.4708 36.5947 35.8499 37.0804 36.1836 37.3839C36.5021 37.6723 37.0026 38.0669 37.2908 38.2491C37.5942 38.4312 38.2312 38.7196 38.7317 38.9017C39.2322 39.0687 40.2939 39.3571 41.0826 39.5088C41.8865 39.6758 43.8127 39.8883 45.3749 39.9945C47.1191 40.116 48.196 40.2374 48.1657 40.3436C48.1353 40.4195 47.7865 40.5106 47.377 40.5258C46.9675 40.5409 45.5266 40.632 44.1919 40.7231C42.8572 40.8141 40.9916 41.0266 40.0209 41.1936C39.0654 41.3454 37.8672 41.5882 37.3666 41.7096C36.8661 41.8462 35.9106 42.1194 35.2432 42.3319C34.5759 42.5444 33.3929 42.9997 32.589 43.3488C31.8003 43.6828 30.7841 44.1836 30.3139 44.4416C29.8589 44.7148 29.1157 45.2309 28.6455 45.5952C28.1905 45.9594 27.3412 46.7031 26.78 47.2344C26.2036 47.7808 25.0357 49.0102 24.1864 49.9816C23.337 50.9378 22.0933 52.41 21.426 53.2448C20.7586 54.0796 19.6362 55.5367 18.9385 56.508C18.2257 57.4643 17.0882 59.0276 16.4208 59.999C15.7383 60.9552 14.4036 62.9435 13.4329 64.4309C12.4622 65.9183 11.5976 67.1326 11.5066 67.1326C11.4308 67.1326 11.3701 67.0415 11.3701 66.9352C11.3701 66.829 12.0223 65.6148 12.8262 64.2488C13.63 62.8676 14.6462 61.1221 15.0861 60.3784C15.5259 59.6195 16.0568 58.633 16.2691 58.1776C16.4663 57.7071 17.0426 56.4777 17.5432 55.4456C18.0437 54.3983 18.8324 52.5922 19.3026 51.4235C19.7576 50.2548 20.3188 48.6459 20.5311 47.8567C20.7434 47.0522 20.9254 46.0353 20.9254 45.58C20.9254 44.9122 20.8344 44.6086 20.5008 44.0926C20.2733 43.7435 19.7727 43.2122 19.3936 42.9087C19.0295 42.6203 18.2409 42.1801 17.6493 41.9373C17.073 41.6945 15.9506 41.3605 15.1468 41.1936C14.3581 41.0266 12.8262 40.8141 11.7341 40.7231C10.6573 40.632 9.3074 40.5561 8.74621 40.5561C8.03335 40.5713 7.71484 40.5106 7.71484 40.374C7.71484 40.2374 8.53387 40.1311 10.7938 39.9945C12.4773 39.8883 14.6766 39.6758 15.6776 39.5088C16.6786 39.3419 18.0133 39.0687 18.6352 38.9017C19.2722 38.7348 20.3946 38.4009 21.1378 38.158C21.8961 37.9152 23.0943 37.4447 23.792 37.1259C24.5049 36.792 25.5666 36.2152 26.1429 35.8358C26.7345 35.4563 27.7507 34.6823 28.418 34.1055C29.0702 33.5288 30.4049 32.1628 31.3756 31.0699C32.3312 29.9771 33.7872 28.262 34.5759 27.2755C35.3798 26.2737 36.7903 24.4372 37.7003 23.1926Z" fill="#FF3A3A" stroke="#FF3A3A" stroke-width="0.20915"/>
</svg>