<?xml version="1.0" encoding="utf-8"?>
<svg xmlns="http://www.w3.org/2000/svg" width="232" height="360" viewBox="0 0 232 360" fill="none">
<g clip-path="url(#clip0_75_750)">
<path d="M145.208 52.4695C149.534 45.6113 158.186 30.9859 164.569 19.9963C170.881 9.00659 176.342 0 176.696 0C177.051 0 177.334 0.330522 177.334 0.826297C177.334 1.23944 176.271 3.96621 172.512 11.9812L160.881 36.6873C160.597 36.4394 158.328 40.9014 155.775 46.4376C153.293 51.9737 149.108 61.9719 146.484 68.5822C143.931 75.1099 140.527 84.3643 138.967 88.9916C137.478 93.6188 135.421 101.055 134.428 105.517C133.435 109.979 132.655 115.185 132.655 117.085C132.655 118.986 133.293 121.961 134.003 123.696C134.783 125.431 136.556 128.075 138.116 129.728C139.605 131.298 141.946 133.446 143.293 134.438C144.711 135.429 147.69 136.999 150.03 137.991C152.371 138.9 157.335 140.469 161.023 141.296C164.782 142.205 173.788 143.362 181.093 143.94C189.249 144.601 194.284 145.262 194.142 145.84C194.001 146.254 192.369 146.749 190.455 146.832C188.54 146.915 181.802 147.41 175.561 147.906C169.32 148.402 160.597 149.559 156.059 150.468C151.591 151.294 145.988 152.616 143.648 153.277C141.307 154.021 136.839 155.508 133.719 156.665C130.598 157.822 125.067 160.3 121.308 162.201C117.62 164.019 112.869 166.746 110.67 168.15C108.542 169.638 105.067 172.447 102.869 174.43C100.741 176.413 96.7699 180.462 94.1458 183.354C91.4509 186.329 85.9901 193.022 82.0186 198.31C78.0471 203.516 72.2317 211.531 69.1112 216.075C65.9908 220.62 60.7427 228.552 57.4804 233.84C54.1472 239.046 48.8283 247.557 45.7078 252.845C42.5164 258.051 36.2755 268.875 31.7367 276.973C27.1978 285.07 23.1554 291.681 22.7299 291.681C22.3753 291.681 22.0916 291.185 22.0916 290.607C22.0916 290.028 25.1411 283.418 28.8999 275.981C32.6586 268.462 37.4102 258.96 39.4669 254.911C41.5235 250.779 44.0057 245.409 44.9986 242.93C45.9206 240.368 48.6155 233.675 50.9558 228.056C53.2962 222.355 56.984 212.522 59.1825 206.16C61.3101 199.797 63.9341 191.039 64.927 186.742C65.9199 182.362 66.7709 176.826 66.7709 174.347C66.7709 170.712 66.3454 169.059 64.7851 166.25C63.7213 164.349 61.381 161.457 59.608 159.805C57.906 158.235 54.2181 155.839 51.4523 154.516C48.7573 153.194 43.5093 151.377 39.7506 150.468C36.0627 149.559 28.8999 148.402 23.7937 147.906C18.7584 147.41 12.4465 146.997 9.82253 146.997C6.48931 147.08 5 146.749 5 146.006C5 145.262 8.82965 144.684 19.3967 143.94C27.2687 143.362 37.5521 142.205 42.2327 141.296C46.9134 140.387 53.1544 138.9 56.062 137.991C59.0407 137.082 64.2887 135.264 67.7638 133.942C71.3097 132.62 76.9124 130.058 80.1747 128.323C83.5079 126.505 88.4723 123.365 91.1672 121.3C93.9331 119.234 98.6847 115.02 101.805 111.88C104.855 108.74 111.096 101.303 115.634 95.354C120.102 89.4047 126.911 80.0676 130.598 74.6967C134.357 69.2432 140.953 59.2451 145.208 52.4695Z" fill="#FF3A3A" stroke="#FF3A3A" stroke-width="1.13155"/>
<path d="M177.811 120.789C182.137 113.93 190.789 99.3051 197.172 88.3154C203.484 77.3257 208.945 68.3192 209.299 68.3192C209.654 68.3192 209.937 68.6497 209.937 69.1454C209.937 69.5586 208.874 72.2854 205.115 80.3004L193.484 105.006C193.2 104.759 190.931 109.221 188.378 114.757C185.896 120.293 181.711 130.291 179.087 136.901C176.534 143.429 173.13 152.683 171.57 157.311C170.081 161.938 168.024 169.375 167.031 173.837C166.038 178.298 165.258 183.504 165.258 185.405C165.258 187.305 165.896 190.28 166.606 192.015C167.386 193.75 169.159 196.394 170.719 198.047C172.208 199.617 174.549 201.765 175.896 202.757C177.314 203.748 180.293 205.318 182.633 206.31C184.974 207.219 189.938 208.789 193.626 209.615C197.385 210.524 206.391 211.681 213.696 212.259C221.852 212.92 226.887 213.581 226.745 214.16C226.604 214.573 224.972 215.068 223.058 215.151C221.143 215.234 214.405 215.73 208.164 216.225C201.924 216.721 193.2 217.878 188.662 218.787C184.194 219.613 178.591 220.935 176.251 221.596C173.91 222.34 169.442 223.827 166.322 224.984C163.201 226.141 157.67 228.62 153.911 230.52C150.223 232.338 145.472 235.065 143.273 236.469C141.146 237.957 137.67 240.766 135.472 242.749C133.344 244.732 129.373 248.781 126.749 251.673C124.054 254.648 118.593 261.341 114.622 266.629C110.65 271.835 104.835 279.85 101.714 284.394C98.5938 288.939 93.3458 296.871 90.0835 302.16C86.7502 307.365 81.4313 315.876 78.3108 321.164C75.1194 326.37 68.8785 337.194 64.3397 345.292C59.8008 353.39 55.7584 360 55.3329 360C54.9783 360 54.6946 359.504 54.6946 358.926C54.6946 358.347 57.7442 351.737 61.5029 344.3C65.2616 336.781 70.0132 327.279 72.0699 323.23C74.1266 319.099 76.6088 313.728 77.6016 311.249C78.5236 308.687 81.2185 301.994 83.5589 296.376C85.8992 290.674 89.587 280.841 91.7855 274.479C93.9131 268.116 96.5371 259.358 97.53 255.061C98.5229 250.682 99.3739 245.145 99.3739 242.667C99.3739 239.031 98.9484 237.378 97.3882 234.569C96.3244 232.668 93.984 229.776 92.211 228.124C90.509 226.554 86.8212 224.158 84.0553 222.836C81.3604 221.514 76.1123 219.696 72.3536 218.787C68.6658 217.878 61.5029 216.721 56.3967 216.225C51.3614 215.73 45.0496 215.316 42.4256 215.316C39.0923 215.399 37.603 215.068 37.603 214.325C37.603 213.581 41.4327 213.003 51.9997 212.259C59.8718 211.681 70.1551 210.524 74.8358 209.615C79.5165 208.706 85.7574 207.219 88.6651 206.31C91.6437 205.401 96.8917 203.583 100.367 202.261C103.913 200.939 109.515 198.377 112.778 196.642C116.111 194.824 121.075 191.684 123.77 189.619C126.536 187.553 131.288 183.339 134.408 180.199C137.458 177.059 143.699 169.622 148.237 163.673C152.705 157.724 159.514 148.387 163.201 143.016C166.96 137.562 173.556 127.564 177.811 120.789Z" fill="#FF3A3A" stroke="#FF3A3A" stroke-width="1.13155"/>
</g>
<defs>
<clipPath id="clip0_75_750">
<rect width="232" height="360" fill="white"/>
</clipPath>
</defs>
</svg>